<?xml version="1.0" encoding="utf-8"?>
<!-- Generator: Adobe Illustrator 23.0.4, SVG Export Plug-In . SVG Version: 6.00 Build 0)  -->
<svg version="1.1" id="Layer_1" xmlns="http://www.w3.org/2000/svg" xmlns:xlink="http://www.w3.org/1999/xlink" x="0px" y="0px"
	 viewBox="0 0 372 328" style="enable-background:new 0 0 372 328;" xml:space="preserve">
<style type="text/css">
	.st0{fill:#CFC5B4;}
</style>
<g>
	<g>
		<path class="st0" d="M344.27,62.66c-34.34-3.15-68.72-5.71-103.26-4.52c-8.68,0.3-17.36,1.78-25.99,3.11
			c-6.07,0.94-9.88,5.06-11.13,11.48c-1.19,6.12-1.95,12.34-3.15,18.46c-1.3,6.67-2.54,13.4-4.43,19.9c-1.46,5-4.7,8.89-9.43,11
			c-3.31,1.48-6.29,2.04-9.35-1.1c-2.06-2.11-4.91-3.5-7.62-4.69c-6.89-3.03-13.87-2.79-20.11,1.83c-3.04,2.25-5.88,2.79-9.28,2.31
			c-3.02-0.43-6.08-0.53-9.13-0.78c-0.02,0.21-0.05,0.42-0.07,0.63c5.33,3.45,10.66,6.9,15.97,10.34
			c-1.96,7.39,2.72,11.09,6.69,14.73c-5.47-0.65-10.97-1.53-16.52-1.84c-2-0.11-4.29,0.73-6.08,1.83
			c-7.22,4.46-11.98,11.36-15.7,19.13c-6.79,14.16-9.65,29.42-11.22,45c-2.03,20.1-1.38,40.14,1.12,60.09
			c0.88,7,2.18,13.94,3.32,21.08c7.6-4.79,12.54-12.68,13.99-21.84c3.64-0.94,7.3-1.61,10.79-2.84
			c10.15-3.57,13.79-8.92,14.05-20.11c9.26-4.16,12.45-10.25,9.88-20.26c-1.2-4.65-3.44-8.99-5.26-13.45
			c-0.41-1.01-1.02-1.92-1.55-2.92c6.68-1.07,14.28,0.71,17.04-8.74c5.4-1.6,12.06-1.05,14.63-8.8c1.47,0.12,3,0.4,4.52,0.33
			c4.15-0.19,8.32-0.36,11.28-4.38c0.36-0.49,1.61-0.5,2.38-0.37c15.26,2.63,30.51,5.26,45.74,8.05c2.03,0.37,4.14,1.31,5.79,2.59
			c6.59,5.1,13.35,10.05,19.4,15.83c4.31,4.12,8.23,4.08,13.08,1.78c6.06-2.87,11.75-6.18,15.01-12.68
			c1.14-2.27,1.65-4.89,2.46-7.39c-22.51-4.97-38.66-18.77-52.63-36.53c0.75-0.49,1.13-0.75,1.51-0.98
			c7.02-4.32,11.78-10.16,11.79-19.34c0-0.77,0.77-1.62,1.31-2.33c2.75-3.58,5.83-6.91,8.18-10.75c1.28-2.09,1.31-5.04,1.95-7.59
			c0.27-1.08,0.45-2.32,1.06-3.15c2.39-3.26,5.13-6.25,7.37-9.62c2.33-3.52,3.45-7.45,1.19-11.59c3.11-3.16,6.51-6.01,5.89-11.6
			c5.84,1.68,11.25,3.44,16.75,4.76c5.85,1.4,11.8,2.41,17.71,3.55c1.9,0.37,2.9-0.68,3.1-2.65c0.2-2.09,0.35-4.19,0.49-5.86
			c4.2-2.16,8.5-3.94,12.39-6.47c4.06-2.64,6.69-6.66,7.12-12.25C346.18,62.91,345.23,62.75,344.27,62.66z"/>
	</g>
	<path class="st0" d="M316.4,95.5c-5.78,0.48-11.25,0.57-17.13,0.62c15.64,18.33,25.03,41.24,25.2,66.13
		c0.43,60.65-53.89,110.43-121.09,110.97c-17.75,0.14-34.65-3.17-49.92-9.24c-1.1,4.67-1.12,9.53-3.51,13.25
		c16.46,6.28,34.56,9.7,53.53,9.54c74.95-0.6,135.53-56.52,135.05-124.64C338.35,137.54,330.22,114.66,316.4,95.5z"/>
	<g>
		<g>
			<path class="st0" d="M82,219.39c-1.49-3.79-1.55-7.54,1.85-9.53c2.38-1.39,5.09-1.13,7.47,0.34c2.13,1.28,3.57,2.91,5.07,5.44
				l5.26,8.87l-0.98,0.57c-2.1-2.9-2.52-2.9-5.29-1.28l-14.04,8.22c-2.91,1.7-2.96,2.17-1.47,5.23l-0.98,0.57l-5.6-9.45
				c-1.6-2.71-2.15-4.67-2.07-6.27c0.09-1.75,0.87-3.38,2.66-4.42C77.16,215.76,80.31,217.66,82,219.39z M84.04,223.78
				c-2.35-3.96-4.86-4.68-7.73-3c-2.45,1.44-3.42,4.09-1.37,7.55c0.6,1.01,1.09,1.6,1.55,1.81c0.38,0.17,0.83,0.05,1.95-0.61
				l6.69-3.92L84.04,223.78z M93.46,220.74c2.52-1.48,2.79-2.46,1.27-5.02c-1.67-2.81-4.76-4.69-8.44-2.54
				c-3.57,2.09-3.57,5.59-0.96,9.99l1.03,1.73L93.46,220.74z"/>
			<path class="st0" d="M87.69,197.79l-1.09,0.32c-1.36-3.18-1.61-3.45-4.92-2.47l-15.47,4.6c-3.35,0.99-3.41,1.36-2.75,4.75
				l-1.09,0.32l-3.29-10.72l1.09-0.33c1.37,3.22,1.62,3.49,4.97,2.5l15.47-4.59c3.35-1,3.37-1.35,2.7-4.78l1.09-0.33L87.69,197.79z"
				/>
			<path class="st0" d="M81.25,153.72c0.03,0.54,0.01,1,0,1.55c-0.04,3.05-0.73,4.71-3.16,6.66c-2,1.63-4.48,3.25-6.49,4.67
				c-1.26,0.89-1.47,1.44-1.36,3.57l0.08,1.46l6.39-0.28c3.46-0.15,3.64-0.62,3.79-3.97l1.14-0.05l0.59,11.13l-1.14,0.05
				c-0.55-3.45-0.73-3.73-4.19-3.58l-16.24,0.71c-3.46,0.15-3.56,0.61-3.75,3.93l-1.14,0.05l-0.56-10.63
				c-0.16-3.04,0.1-5.1,1.03-6.73c0.97-1.75,2.74-2.96,5.22-3.07c3.5-0.15,5.82,2.04,7.28,5.07c1.22-0.81,3.85-2.72,5.62-4.05
				c2.08-1.64,3.05-2.47,4.02-3.48c1.12-1.18,1.52-2.16,1.71-3.13L81.25,153.72z M68.83,169.68c-0.11-2.17-0.51-3.53-1.42-4.54
				c-1.27-1.58-2.93-2.17-5.13-2.07c-4.36,0.19-5.79,3.22-5.62,6.43c0.06,1.21,0.26,1.91,0.52,2.19c0.3,0.36,0.72,0.47,1.78,0.42
				l9.97-0.44L68.83,169.68z"/>
			<path class="st0" d="M59.04,129.85c1.55-5.67,3.63-8.93,6.63-10.78c2.43-1.44,5.57-2.11,9.35-1.05c4.6,1.29,7.81,4.27,9.25,8
				c1.41,3.68,1.21,7.82-0.14,12.77l-2.57,9.4l-1.1-0.31c0.63-3.54,0.4-3.78-2.83-4.69l-15.69-4.4c-3.38-0.95-3.67-0.51-4.84,2.54
				l-1.1-0.31L59.04,129.85z M78.27,139.61c2.95,0.83,4.13-0.23,4.95-3.24c1.98-7.23-1.85-12.29-8.73-14.22
				c-4.29-1.2-7.96-0.63-10.71,2.02c-1.65,1.53-2.71,3.74-3.45,6.43c-0.49,1.81-0.52,2.84-0.32,3.33c0.14,0.43,0.53,0.71,2.06,1.14
				L78.27,139.61z"/>
			<path class="st0" d="M109.78,90.11l-0.88-0.74c1.49-2.28,1.39-2.8-0.17-3.35c-1.57-0.61-3.67-1.29-6.2-2.29l-5.79,6.87
				c0.98,1.69,1.8,3.2,2.71,4.73c1.44,2.41,2.07,2.18,4.58-0.17l0.88,0.74l-6.19,7.35l-0.88-0.74c1.44-2.22,1.65-2.91-0.23-6.39
				L86.73,75.71l0.67-1.18c7.04,2.5,14.8,5.28,21.9,7.84c3.58,1.27,4.07,1.2,6.22-0.85l0.88,0.74L109.78,90.11z M90.43,79.25
				c1.83,3.28,3.77,6.76,5.44,9.8l5.01-5.95L90.43,79.25z"/>
			<path class="st0" d="M124.2,58.34c3.62-1.83,7.35-2.22,9.7,0.97c1.65,2.24,1.68,4.95,0.47,7.45c-1.05,2.23-2.52,3.81-4.87,5.52
				l-8.27,6.03l-0.68-0.92c2.66-2.35,2.61-2.77,0.7-5.37l-9.71-13.2c-2.01-2.73-2.48-2.74-5.38-0.99l-0.68-0.92l8.81-6.42
				c2.52-1.84,4.42-2.56,6.03-2.62c1.76-0.07,3.46,0.56,4.7,2.24C127.3,53.2,125.75,56.5,124.2,58.34z M120.05,60.76
				c3.7-2.7,4.15-5.25,2.16-7.95c-1.7-2.31-4.45-3.03-7.68-0.68c-0.94,0.69-1.47,1.23-1.64,1.7c-0.12,0.39,0.04,0.83,0.82,1.88
				l4.63,6.29L120.05,60.76z M124.1,69.85c1.74,2.37,2.75,2.55,5.14,0.81c2.62-1.91,4.16-5.16,1.62-8.61
				c-2.47-3.36-5.96-3.04-10.06-0.05l-1.61,1.18L124.1,69.85z"/>
			<path class="st0" d="M169,52.01c-0.5,0.21-0.94,0.35-1.45,0.53c-2.88,1.01-4.68,0.93-7.38-0.67c-2.25-1.3-4.65-3.07-6.71-4.46
				c-1.29-0.87-1.88-0.88-3.84-0.05l-1.34,0.57l2.56,5.88c1.38,3.18,1.89,3.19,5.08,2.18l0.46,1.05l-10.23,4.37l-0.46-1.05
				c3.04-1.69,3.24-1.96,1.85-5.14l-6.5-14.93c-1.38-3.18-1.85-3.11-5.03-2.16l-0.46-1.05l9.77-4.17c2.8-1.19,4.82-1.66,6.69-1.35
				c2,0.3,3.76,1.54,4.76,3.83c1.4,3.22,0.17,6.14-2.14,8.55c1.19,0.87,3.93,2.67,5.82,3.86c2.28,1.38,3.42,2,4.71,2.56
				c1.51,0.64,2.57,0.68,3.55,0.53L169,52.01z M149.56,45.88c1.99-0.85,3.13-1.69,3.74-2.88c1.02-1.72,0.98-3.48,0.1-5.5
				c-1.74-4.01-5.1-4.3-8.05-3.04c-1.11,0.47-1.7,0.9-1.87,1.24c-0.23,0.41-0.18,0.83,0.24,1.81l3.99,9.17L149.56,45.88z"/>
			<path class="st0" d="M183.96,21.06c7.04-1.18,14.27,3.02,15.68,11.01c1.52,8.63-3.54,15.01-11.12,16.28
				c-7.91,1.32-14.71-3.57-16.04-11.11C171.21,30.05,175.27,22.51,183.96,21.06z M183.4,22.68c-4.61,0.77-8.15,5.25-6.83,12.75
				c1.32,7.46,6.49,12.26,12.34,11.28c4.98-0.83,8.09-5.07,6.73-12.81C194.15,25.47,188.79,21.78,183.4,22.68z"/>
			<path class="st0" d="M225.17,46.24l0.06-1.14c2.73-0.15,3.09-0.53,2.59-2.11c-0.45-1.62-1.18-3.7-1.91-6.32l-9.02-0.58
				c-0.77,1.78-1.48,3.33-2.16,4.95c-1.07,2.58-0.5,2.94,2.9,3.57l-0.06,1.14l-9.65-0.62l0.06-1.14c2.65-0.16,3.33-0.4,5-3.96
				l9.83-20.75l1.35-0.16c2.24,7.11,4.7,14.97,6.94,22.17c1.14,3.62,1.5,3.97,4.44,4.48l-0.06,1.14L225.17,46.24z M222.2,24.33
				c-1.53,3.4-3.16,7.01-4.59,10.13l7.81,0.5L222.2,24.33z"/>
			<path class="st0" d="M260.5,26.25c5.64,1.76,8.87,3.96,10.65,7.03c1.39,2.47,2,5.64,0.86,9.37c-1.39,4.54-4.43,7.63-8.2,8.92
				c-3.72,1.26-7.86,0.9-12.78-0.63L241.67,48l0.33-1.09c3.53,0.76,3.78,0.54,4.75-2.64l4.73-15.49c1.02-3.34,0.59-3.64-2.44-4.93
				l0.33-1.09L260.5,26.25z M250.33,45.05c-0.89,2.91,0.14,4.13,3.14,5.06c7.2,2.25,12.34-1.38,14.42-8.17
				c1.29-4.23,0.8-7.91-1.79-10.76c-1.5-1.7-3.69-2.85-6.37-3.69c-1.8-0.56-2.83-0.63-3.33-0.44c-0.43,0.12-0.72,0.5-1.18,2.01
				L250.33,45.05z"/>
		</g>
	</g>
</g>
</svg>
